<svg width="82" height="82" viewBox="0 0 82 82" fill="none" xmlns="http://www.w3.org/2000/svg">
<path d="M43.577 74.4912C41.942 74.4894 40.3732 73.8448 39.2091 72.6967L17.5051 50.9588C16.9482 50.405 16.601 49.6749 16.5232 48.8933L13.5435 17.2346C13.4979 16.7386 13.5623 16.2387 13.732 15.7705C13.9017 15.3023 14.1726 14.8773 14.5255 14.5258C14.877 14.173 15.302 13.9021 15.7702 13.7323C16.2384 13.5626 16.7383 13.4983 17.2342 13.5439L48.893 16.5235C49.6745 16.6014 50.4047 16.9485 50.9584 17.5054L72.6963 39.2095C73.848 40.3646 74.4947 41.9293 74.4947 43.5604C74.4947 45.1916 73.848 46.7563 72.6963 47.9114L47.9111 72.6967C46.7595 73.8428 45.2018 74.4878 43.577 74.4912V74.4912ZM23.2612 47.0311L43.577 67.3468L67.4481 43.4758L47.1323 23.16L20.6879 20.6882L23.2612 47.0311Z" fill="#05595B"/>
<path d="M35.5516 40.6316C38.3566 40.6316 40.6306 38.3577 40.6306 35.5526C40.6306 32.7476 38.3566 30.4737 35.5516 30.4737C32.7466 30.4737 30.4727 32.7476 30.4727 35.5526C30.4727 38.3577 32.7466 40.6316 35.5516 40.6316Z" fill="#05595B"/>
</svg>
